<svg xmlns="http://www.w3.org/2000/svg" viewBox="0 0 512 512">
  <rect width="512" height="512" rx="96" fill="#1a1a2e"/>
  <!-- Top-left finder -->
  <rect x="56" y="56" width="140" height="140" rx="20" fill="none" stroke="#fff" stroke-width="28"/>
  <rect x="96" y="96" width="60" height="60" rx="10" fill="#fff"/>
  <!-- Top-right finder -->
  <rect x="316" y="56" width="140" height="140" rx="20" fill="none" stroke="#fff" stroke-width="28"/>
  <rect x="356" y="96" width="60" height="60" rx="10" fill="#fff"/>
  <!-- Bottom-left finder -->
  <rect x="56" y="316" width="140" height="140" rx="20" fill="none" stroke="#fff" stroke-width="28"/>
  <rect x="96" y="356" width="60" height="60" rx="10" fill="#fff"/>
  <!-- Data dots -->
  <rect x="236" y="76" width="40" height="40" rx="8" fill="#fff"/>
  <rect x="236" y="236" width="40" height="40" rx="8" fill="#818cf8"/>
  <rect x="316" y="236" width="40" height="40" rx="8" fill="#fff"/>
  <rect x="236" y="316" width="40" height="40" rx="8" fill="#fff"/>
  <rect x="316" y="316" width="40" height="40" rx="8" fill="#818cf8"/>
  <rect x="396" y="396" width="40" height="40" rx="8" fill="#fff"/>
  <rect x="316" y="396" width="40" height="40" rx="8" fill="#818cf8"/>
  <rect x="396" y="316" width="40" height="40" rx="8" fill="#fff"/>
</svg>
